<svg id="Layer_1" data-name="Layer 1" xmlns="http://www.w3.org/2000/svg" viewBox="0 0 269.77 306"><defs><style>.cls-1{fill:#e6e7e9;}.cls-2{fill:#010002;}.cls-3{fill:#fc591c;}</style></defs><title>Untitled-1</title><path class="cls-1" d="M116.92,129.58C105.65,132.41,95.31,138.11,86,145c-1.4,1-2.66,2.4-4.53,2.26-3.25.11-5.48,3-6.42,5.82C58.41,158.11,41.7,163,25.27,168.8c-3.71,1.51-8.16,2.44-10.47,6a30.65,30.65,0,0,0-4.4,14.44,22.3,22.3,0,0,0-5.89,12.29,102.31,102.31,0,0,0,0,14.33c-1.28,1.74-2.78,3.82-2.21,6.11s2.26,3.82,4.13,4.85c4.81,2.72,10.24,4,15.51,5.48,11.4,2.83,23,4.78,34.54,6.92,15.72,2.73,31.42,5.66,47.18,8.21v.46c-7.45,0-14.8-1.62-22.2-2.3-20.81-2.8-41.61-6-62.06-10.87-5.47,1.43-11.21,2.54-16.07,5.59-1.18.59-2.22,2.26-1.08,3.41,2.54,2.47,6.25,3.08,9.54,4.05,11.32,2.7,23,3.66,34.43,5.9a61.48,61.48,0,0,0,6.54,6.67c4.52,3.77,9.89,6.34,15,9.2q31.46,17.48,63,34.89A45.18,45.18,0,0,0,163,308.75a30.65,30.65,0,0,1,5.44-1.25c-1.16.51-2.26,1.07-3.42,1.63,6.49-.89,12.52-3.82,18-7.28q31.77-19.14,63.57-38.23c5.17-2.94,10.2-6.39,14-11.06a45.53,45.53,0,0,0,10.67-34.48c-.61-7.24-3.45-14-7.08-20.25-.14,2.89.12,6-1.6,8.54-2,3.55-6.34,4.35-10,4.83,1.17-2.51,4.39-3.29,5.65-5.8,1.71-3,1.46-6.55,1.09-9.81-.61-8.2-1-16.45-2.37-24.57-.43-2.27-1.21-4.82-3.45-5.91-6.39-3.57-12.91-7.39-17.63-13.11-7.77-7.48-16.81-13.88-27-17.48-15.43-5.53-31.91-7.33-48.19-7.93-14.62-.38-29.48-.64-43.74,3" transform="translate(-1.81 -4)"/><path class="cls-1" d="M80,154.61c9.38-7.71,19.43-15.09,31-19.19a101.79,101.79,0,0,1,13.07,0c-6.37,4.08-14,6.86-19,12.82-1.51,1.56-1.28,4.14.95,4.86,6.79,2.43,14.09,3,21,5.12a25.92,25.92,0,0,1-4.66-.08C108.21,156.51,94.05,156,80,154.61Z" transform="translate(-1.81 -4)"/><path class="cls-1" d="M188.9,155.93a9.17,9.17,0,0,1,1.87-1,17.22,17.22,0,0,1,16.76,7.35,3,3,0,0,1-3.48,3c-.43-1.91-1-3.93-2.69-5.14C197.76,157.47,193.22,156.6,188.9,155.93Z" transform="translate(-1.81 -4)"/><path class="cls-1" d="M165.87,168.21a15.78,15.78,0,0,0,5.85-3.45h.58c.92.48,2.51.85,2.64,2.09-.89,1.51-2.92,1.88-4.44,2.6q-31,11.24-62.64,20.46c-6.35,1.66-12.82,3.93-19.49,2.84C69.21,190,50,187.39,30.87,184.59c-2.48-.45-5.09-.42-7.44-1.43a2.59,2.59,0,0,1-.67-4.11c.54,2,2.54,2.63,4.35,2.83q26.67,4,53.5,7.05c5.91.67,12,1.76,17.85,0C121.24,183.11,143.62,175.8,165.87,168.21Z" transform="translate(-1.81 -4)"/><path class="cls-1" d="M17.88,177l.62-.13c2.82,4.7,2.77,10.5,2.26,15.79-1-3.51-1-7.23-2-10.77H16.67c-1.06,2.58-1.4,5.69.92,7.73l.09,2.63a18.28,18.28,0,0,1-3.67-2.7A31.12,31.12,0,0,1,17.88,177Z" transform="translate(-1.81 -4)"/><path class="cls-1" d="M223.35,180.76c5.86-.8,11.83-2.38,17.75-1.63-23,5.47-46,11-68.45,18.52a25.59,25.59,0,0,1-2.9-5.59Q196.29,185.27,223.35,180.76Z" transform="translate(-1.81 -4)"/><path class="cls-1" d="M243.22,185.33c2.06-1,4.21.64,5.19,2.39,3.4,5.77,3.06,12.78,2.6,19.22-.75,4.41-1.72,9.42-5.39,12.4-2.1,1.65-4.64,0-5.83-1.86a22.2,22.2,0,0,1-2.93-10.63c-.33-5.6.09-11.39,2.35-16.59a9.81,9.81,0,0,1,4-4.93m-.13,2c-3.2,3.06-3.92,7.72-4.62,11.89-.51,5.61-.42,11.59,2.15,16.74.67,1.51,2.66,3.17,4.26,1.82,3.13-2.61,3.87-7,4.61-10.77.62-5.86.71-12.11-1.86-17.56-.76-1.7-2.66-3.33-4.54-2.12Z" transform="translate(-1.81 -4)"/><path class="cls-1" d="M110.08,191.65c8.64-2.52,17.71-2.76,26.61-3.57l1.23,1.21c-1,3.57-3.53,6.43-5.81,9.26-2.75,3.67-7.85,3.08-11.83,4.18.23-1.07.45-2.14.67-3.2,2.44-.47,5.54-1.74,5.51-4.7a2.55,2.55,0,0,0-2-3,2.28,2.28,0,0,0-.64,0c-5.89.5-12,1-17.42,3.45-4.78,2.33-8,6.79-11.85,10.2C97.89,199.32,103.1,193.57,110.08,191.65Z" transform="translate(-1.81 -4)"/><path class="cls-1" d="M242.09,206.85c-1.42-3.48-1.22-8.42,2.31-10.56,3.84,2.3,3.55,8,1.31,11.31-1,1.43-3.1.68-3.62-.75m2.14-8.56a8.44,8.44,0,0,1-.62,8.75c2.77-1.6,3.24-7,.62-8.75Z" transform="translate(-1.81 -4)"/><path class="cls-1" d="M155.73,200.48a8.12,8.12,0,0,1,8.35,1.64c4.42,4.07,5.95,10.22,6.73,16,.85,8.36-.25,17.14-4.25,24.62-2,3.48-5.19,7.3-9.62,7.15-4.61.07-7.69-4.17-9.41-8-3.61-8.52-3.59-18.23-1.43-27.11,1.57-5.55,4.17-11.64,9.63-14.33m2,1.94c-4.08,1.15-6.29,5.22-7.85,8.85a41.93,41.93,0,0,0-1,27.44c1.12,3.34,2.85,7,6.28,8.47,3.22,1.38,6.32-1.35,8.11-3.77,4.07-6,5.45-13.54,5.33-20.71,0-5.86-1.05-12-4.31-16.94-1.35-2.1-3.93-3.94-6.52-3.33Z" transform="translate(-1.81 -4)"/><path class="cls-1" d="M156.13,217.41a3.89,3.89,0,0,1,5.35.59c2.32,2.76,2.49,6.75,1.6,10.11-.66,2.85-3.06,5.75-6.29,5.18-5.13-3.51-5.12-11.84-.66-15.88m1.7,1.37a8.79,8.79,0,0,1-.92,12.23c3.11.19,4.11-3.64,4.14-6.09s-.28-5.93-3.22-6.14Z" transform="translate(-1.81 -4)"/><path class="cls-1" d="M221.69,221.23a80.85,80.85,0,0,1,9.65-2.84,2.35,2.35,0,0,1-.14.52c-2.49.38-4.69,1.65-7,2.51-17.68,6.6-35.25,13.51-52.92,20.15a35.54,35.54,0,0,1,1.11-4.32C188.74,231.71,205.28,226.65,221.69,221.23Z" transform="translate(-1.81 -4)"/><path class="cls-1" d="M218.16,238.88a84,84,0,0,1,8.36-3.52c-2.5,4.53-5.64,8.7-8.42,13.09l-27.15,41c1.19-3.85,3.52-7.17,5.44-10.66,5.91-10.68,11.92-21.32,17.78-32C215.59,244.16,217.28,241.69,218.16,238.88Z" transform="translate(-1.81 -4)"/><g id="_010002ff" data-name=" 010002ff"><path class="cls-2" d="M199.42,11.72C207.34,6.2,217.3,2.6,227,4.52,235.39,6,242.46,12.31,245.82,20c4.52,10,4.52,21.54,2.32,32.16-3.43,12-8,24-16.28,33.55-7.1,8.91-16.89,16-28.11,18.54-5.21,1.1-10.79,2-15.91,0-1.27-1.8-.91-4.76,1.51-5.28,3.6.47,7.26,1.29,10.91.53,10.26-1.63,19-8.3,25.68-15.84a72.8,72.8,0,0,0,17.28-37.51c.83-8.68.64-18-4-25.76-3.28-6-9.8-10.43-16.74-10.3-9.05-.48-17.35,4.28-24,9.9a70.65,70.65,0,0,0-21.87,36,19.64,19.64,0,0,0-6.68-2.79c1.78.35,1.7-1.87,2.2-3C176.83,34.91,186.34,21,199.42,11.72Z" transform="translate(-1.81 -4)"/><path class="cls-2" d="M127,56.17a43.51,43.51,0,0,1,21.69-5.94c3.5.05,7-.09,10.49.12-8.68-.42-17.66.08-25.52,4.14a49,49,0,0,0-20.45,18.09q-23.53,38.3-47,76.62c-.55.75-1,1.88-2.09,2-8,2.39-15.84,5-23.83,7.3a46.23,46.23,0,0,1-3.46-33.8A45,45,0,0,1,56.74,98.38Z" transform="translate(-1.81 -4)"/><path class="cls-2" d="M116.92,129.58c14.27-3.68,29.13-3.42,43.74-3,16.28.6,32.77,2.4,48.19,7.93,10.24,3.6,19.28,10,27.05,17.48,4.72,5.72,11.24,9.54,17.63,13.11,2.27,1.09,3,3.64,3.46,5.91,1.39,8.12,1.75,16.37,2.36,24.57.38,3.29.62,6.85-1.09,9.81-1.26,2.51-4.48,3.29-5.65,5.8,3.68-.48,8-1.28,10-4.83,1.72-2.52,1.46-5.65,1.61-8.54,3.62,6.21,6.46,13,7.08,20.25a45.57,45.57,0,0,1-10.67,34.48c-3.78,4.67-8.8,8.12-14,11.06q-31.77,19.14-63.57,38.23c-5.5,3.46-11.52,6.39-18,7.28,1.14-.56,2.27-1.12,3.42-1.63A47.42,47.42,0,0,0,191,289.41l27.15-41c2.78-4.38,5.92-8.54,8.42-13.09a81.72,81.72,0,0,0-8.36,3.53c-14.24,5.73-28.31,11.93-42.52,17.73-8.75,3.62-17.35,8.3-27.06,8.65-9.29,1.22-18.63.25-27.91-.34-25-2.34-49.6-7.23-74.32-11.25-11.44-2.26-23.09-3.2-34.43-5.9-3.3-1-7-1.58-9.55-4.05-1.13-1.13-.1-2.82,1.09-3.41,4.85-3,10.56-4.17,16.07-5.59,20.44,4.87,41.24,8.07,62.06,10.87,7.4.68,14.74,2.26,22.19,2.3v-.46C88,244.88,72.33,242,56.6,239.22c-11.54-2.14-23.14-4.09-34.54-6.92-5.28-1.51-10.7-2.76-15.5-5.48-1.9-1-3.71-2.64-4.14-4.85s.94-4.37,2.21-6.11a103.82,103.82,0,0,1,0-14.33,22.43,22.43,0,0,1,5.89-12.29,30.76,30.76,0,0,1,4.4-14.44c2.32-3.61,6.79-4.52,10.48-6C41.75,163,58.46,158.08,75.12,153c.95-2.86,3.18-5.71,6.43-5.82,1.86.16,3.13-1.27,4.52-2.26,9.3-6.86,19.61-12.56,30.92-15.39M129.16,131c-4.32.79-8.83,1-12.9,2.79-1.71.26-3.44.16-5.16.25,11.77-.39,23.51.49,35.27.75,10.08.18,20.16.55,30.21,1.37,2.19.21,4.52-.1,6.59.85-2.91,9-6.45,17.74-10.1,26.4a26.71,26.71,0,0,1,3.83,2.4c1.08,1.86-.86,3.42-2.48,3.88-17.13,6.61-34.64,12.15-52.11,17.75,5.88.1,11.65-2.17,17.58-1.19.5,5.12-3.3,9.23-6.11,13.09-2.09,3.07-5.92,3.9-9.31,4.66a175.59,175.59,0,0,1-27.09,2.58c-1.7.08-4.21,1.1-4.86-1.21,1-5.28,6-8.29,9.5-12-4.2.75-8.49,1.64-12.76.88l.71.53c.23,2.53-.75,5.69-3.19,6.91-6.55.34-13.06-1-19.6-1.51-13.34-1.59-26.68-3.41-39.8-6.32a10.87,10.87,0,0,1-2.63-2.09c.06-2.19.06-4.4.08-6.59L22.1,185a80.89,80.89,0,0,1,0,10.56c-3.21-.33-5.28-3.35-8.42-3.81a16.81,16.81,0,0,0-5.12,9.19,51.31,51.31,0,0,1,15.09,11.39,20.81,20.81,0,0,1-5.95-1.5c-.22.52-.62,1.56-.83,2.08a10.83,10.83,0,0,1,2.9,1.7c-1.1,0-2.2.05-3.3.05l-.33,1.51c1,.48,2.26.76,2.94,1.71l-2.64-.11c-1.87,3-5.54,1.24-7.89-.08-1.38,1.19-2.52,2.61-2.21,4.52,5.75,3.69,12.48,5.33,19,7.27,8.62,2.18,17.28,4.19,26,5.81,22.4,4.48,45,8.18,67.83,9.57,6.74-.09,13.73.82,20.23-1.43,1.23-4.1.24-8.43,1.17-12.57.24-9.22,1.7-18.65,6-26.91,2.77-5.15,7.22-10.25,13.38-10.9,5-.08,9.25,3.83,10.73,8.45,3.21,9.2,2.65,19.19,1.93,28.76a4.54,4.54,0,0,1-.87,2.48,15,15,0,0,0,2.32,0c12.82-4.38,25.64-8.91,38.53-13.17,7.44-2.68,15.08-4.92,22.37-7.92,0-4.15-.21-8.35.64-12.44.26-4.9.82-10.13,3.73-14.27,2-2.21,5.52-3.25,8.29-1.78,3.35,3.43,4.69,8.3,4.93,13a24.81,24.81,0,0,1-.22,10.33c1-1.41,2.52-2.61,3.13-4.29.75-10.16-1.23-20.22-1.76-30.34-13.06-2.38-26.4-.34-39.41,1.16-19.61,2.69-39.11,6.35-58.49,10.46a29,29,0,0,1-6.34,1.08c14.76-4.66,30-7.36,45.25-10.25,17.56-3,35.13-6,52.84-8-.76-1.39-2.27-2-3.5-2.85a48.13,48.13,0,0,1-9.21-7.38,78.24,78.24,0,0,0-19-14.78c-12.75-7.42-27.81-8.51-42.12-10.24-14.81-1-29.75-1.72-44.5-.09M80.09,154.43c14.09,1.34,28.25,1.91,42.32,3.52a25,25,0,0,0,4.66.08c-6.86-2.08-14.18-2.69-20.95-5.12-2.26-.76-2.44-3.3-1-4.86,5-6,12.59-8.75,19-12.82a101.79,101.79,0,0,0-13.07,0c-11.53,4.14-21.58,11.48-31,19.19M32.17,170.25c-4.31,1.2-6.7,5.35-9.27,8.65a2.59,2.59,0,0,0,.67,4.11c2.35,1,5,1,7.44,1.44,19.17,2.8,38.34,5.42,57.51,8.16,6.65,1.08,13.13-1.19,19.49-2.85,21.11-6.09,42-13,62.63-20.46,1.51-.75,3.55-1.05,4.45-2.59-.14-1.24-1.72-1.61-2.64-2.09h.37a34.6,34.6,0,0,0-6.73-.75c-19.85-1.83-39.69-3.71-59.58-5.11-10.29-1.06-20.68-1-31-2q-21.8,6.38-43.37,13.5M20,174.94c.35,1.06.71,2.12,1.1,3.19a28,28,0,0,0,4-5.28A38.66,38.66,0,0,0,20,175m-2,1.87a29.61,29.61,0,0,0-3.84,12.55,17.42,17.42,0,0,0,3.67,2.71l-.09-2.63c-2.32-2-2-5.15-.92-7.73H19c1,3.53.91,7.25,1.95,10.77.48-5.28.53-11.09-2.26-15.8l-.63.14m225.34,8.36a9.82,9.82,0,0,0-4,4.93c-2.27,5.19-2.68,11-2.35,16.59a22.35,22.35,0,0,0,2.93,10.63c1.19,1.9,3.73,3.5,5.83,1.86,3.67-3,4.6-8,5.4-12.4.46-6.45.79-13.45-2.61-19.22-1-1.75-3.13-3.37-5.19-2.39m-133.14,6.32c-7,1.92-12.19,7.67-15.58,13.8,3.89-3.45,7.07-7.87,11.85-10.2,5.46-2.46,11.53-3,17.42-3.45a2.56,2.56,0,0,1,2.73,2.38,2.67,2.67,0,0,1,0,.63c0,3-3.07,4.23-5.51,4.71-.22,1.06-.44,2.13-.67,3.2,4-1.1,9-.51,11.83-4.18,2.26-2.84,4.77-5.69,5.81-9.26l-1.23-1.21c-8.9.81-18,1-26.61,3.57m45.65,8.83c-5.46,2.68-8.06,8.77-9.62,14.33-2.17,8.88-2.19,18.59,1.42,27.1,1.72,3.77,4.8,8,9.41,8,4.43.16,7.59-3.66,9.63-7.14,4-7.49,5.09-16.26,4.24-24.62-.75-5.75-2.31-11.9-6.73-16a8.14,8.14,0,0,0-8.35-1.63m66,20.74c-16.41,5.43-33,10.49-49.32,16a40.24,40.24,0,0,0-1.11,4.32c17.67-6.63,35.24-13.57,52.92-20.14,2.33-.87,4.53-2.13,7-2.51,0-.13.11-.39.14-.52-3.47.72-6.6,2-9.8,3Z" transform="translate(-1.81 -4)"/><path class="cls-2" d="M189.24,140.54c.4-1.27,1.33-3,3-2.65A63.66,63.66,0,0,1,224,151.73c2.08,1.83,4.89,3.49,5.28,6.48-7.15,1.86-14.53,2.66-21.77,4.11A17.22,17.22,0,0,0,190.77,155a9.17,9.17,0,0,0-1.87,1c4.32.67,8.86,1.5,12.46,4.22,1.67,1.21,2.26,3.23,2.69,5.14-3.17.33-6.35.49-9.53.67-1.37.76-.75,2.73-1.39,4-.49,1.68-2.7,3.27-4.3,2-2-1.51-2.07-4.23-2.05-6.47l-4.84.49C183.28,157.22,186.09,148.79,189.24,140.54Z" transform="translate(-1.81 -4)"/><path class="cls-2" d="M243.09,187.29c1.88-1.21,3.77.42,4.52,2.12,2.58,5.45,2.48,11.7,1.87,17.56-.76,3.77-1.51,8.16-4.61,10.77-1.61,1.35-3.59-.31-4.26-1.82-2.57-5.15-2.66-11.13-2.16-16.74.7-4.17,1.43-8.83,4.62-11.89m-1,19.56c.53,1.44,2.67,2.2,3.63.75,2.26-3.34,2.52-9-1.31-11.31-3.52,2.14-3.72,7.08-2.3,10.56Z" transform="translate(-1.81 -4)"/><path class="cls-2" d="M24.91,195.16a145.92,145.92,0,0,0,33.19,6.38,149.54,149.54,0,0,0,28.59,1.86,28.62,28.62,0,0,1-7.55,7.17c-7.61,2.26-15.55.7-23.27.07-8.91-1.28-17.83-3-26.25-6.28C26.38,202.55,25.56,198.51,24.91,195.16Z" transform="translate(-1.81 -4)"/><path class="cls-2" d="M244.23,198.29c2.62,1.78,2.16,7.15-.62,8.75A8.44,8.44,0,0,0,244.23,198.29Z" transform="translate(-1.81 -4)"/><path class="cls-2" d="M225.58,201.16a30.15,30.15,0,0,1,6.93-1.77c-2.45,1.9-5.12,3.5-7.71,5.2-2.84,1.46-3.89,4.68-6,6.95-9.44,2.86-18.69,6.37-28,9.49-4.13,1.28-8.09,3.22-12.39,3.77.15-3.07.23-6.16.15-9.24C194.2,210.69,209.92,206,225.58,201.16Z" transform="translate(-1.81 -4)"/><path class="cls-2" d="M157.73,202.42c2.59-.61,5.17,1.23,6.52,3.32,3.26,5,4.34,11.08,4.31,16.94.12,7.17-1.26,14.67-5.33,20.7-1.79,2.45-4.89,5.18-8.11,3.78-3.43-1.46-5.16-5.13-6.29-8.47a42,42,0,0,1,1-27.45c1.56-3.62,3.77-7.7,7.85-8.84m-1.6,15c-4.46,4-4.47,12.37.66,15.88,3.23.57,5.63-2.34,6.29-5.19.89-3.35.72-7.34-1.6-10.1a3.89,3.89,0,0,0-5.35-.57Z" transform="translate(-1.81 -4)"/><path class="cls-2" d="M18.88,221.79c2.31-3.45,4.86-8.59,9.8-7.84,12.34,1.88,24.66,4,37,6.09,3.89,1,8.21.65,11.7,2.9,4.36,2.74,7.35,7.07,10.22,11.23C64.27,233.31,41.35,227.85,18.88,221.79Z" transform="translate(-1.81 -4)"/><path class="cls-2" d="M93.59,219.1c7-.89,14.14-1.08,21,.76,4.47,1.31,7.4,5.27,9.7,9,2,3.67,4.15,7.69,3.41,12a83.29,83.29,0,0,1-24-2.06c-2.32-.57-2.13-3.41-3.18-5.11-2.14-.23-4.53-.21-6.32-1.51a16.62,16.62,0,0,1,6.11-.67c-.41-1.3-.83-2.59-1.25-3.88a41.39,41.39,0,0,1-7.89-1.3c2.34-1.33,5.08-.87,7.65-1a16,16,0,0,0-1.32-2.16c-5.31-1-10.79-1.24-16.06-2.53A82.6,82.6,0,0,1,93.59,219.1Z" transform="translate(-1.81 -4)"/><path class="cls-2" d="M157.83,218.78c2.94.21,3.34,3.82,3.22,6.14s-1,6.28-4.14,6.09A8.78,8.78,0,0,0,157.83,218.78Z" transform="translate(-1.81 -4)"/></g><g id="_fc591cff" data-name=" fc591cff"><path class="cls-3" d="M133.62,54.48c7.86-4.06,16.84-4.53,25.52-4.14a26.4,26.4,0,0,1,10.8,2.82A19.6,19.6,0,0,1,176.61,56c13,7.32,26.12,14.45,39.16,21.73,3.4,1.94,7,3.55,10.16,5.94-6.73,7.59-15.42,14.25-25.68,15.84-1-4.69-5.07-8.93-10.1-8.67a10,10,0,0,0-10.09,10.41c.06,5.44,5.32,10.28,10.8,9.58,2.43.12,4.31-1.84,6.74-1.8,14.39-1.31,27.15-10,35.9-21.21a31.11,31.11,0,0,1,5.69,2.83c5.52,3.17,11.43,5.87,16.1,10.31a45.61,45.61,0,0,1,14.4,39.43c-.76,8.81-5.23,16.69-9.75,24.13-2.34-3.47-6.47-4.68-9.77-7-3-2-6.18-3.93-8.72-6.56a78.67,78.67,0,0,0-34.94-22.41c-17-5.37-34.91-6.69-52.63-7.11-14.19-.09-28.66.24-42.28,4.62-11.9,3.7-22.63,10.39-32.37,18a54.9,54.9,0,0,1-6.5,4.75c13.7-25.33,27.85-50.43,41.75-75.67C118.83,65.14,125.92,59.12,133.62,54.48Z" transform="translate(-1.81 -4)"/><path class="cls-3" d="M129.08,131.05c14.78-1.64,29.72-1,44.5.09,14.33,1.72,29.37,2.82,42.12,10.24a78.2,78.2,0,0,1,19,14.77,48.32,48.32,0,0,0,9.22,7.39c1.22.85,2.74,1.46,3.49,2.85-17.71,2-35.28,5-52.84,8-15.18,2.88-30.46,5.58-45.25,10.25a29.63,29.63,0,0,0,6.34-1.09c19.38-4.11,38.86-7.77,58.49-10.46,13-1.51,26.39-3.54,39.41-1.15.54,10.11,2.5,20.18,1.76,30.34-.61,1.68-2.08,2.88-3.13,4.28a24.76,24.76,0,0,0,.22-10.32c-.24-4.68-1.58-9.56-4.93-13-2.74-1.47-6.24-.43-8.29,1.78-2.91,4.13-3.46,9.36-3.73,14.27-.85,4.08-.65,8.29-.64,12.44-7.31,3-14.93,5.23-22.37,7.92-12.89,4.25-25.68,8.78-38.53,13.16a15,15,0,0,1-2.32,0,4.44,4.44,0,0,0,.87-2.48c.72-9.57,1.29-19.55-1.93-28.75-1.5-4.62-5.73-8.53-10.73-8.46-6.16.65-10.61,5.75-13.38,10.9-4.29,8.3-5.75,17.69-6,26.91-.93,4.15.07,8.48-1.17,12.57-6.5,2.26-13.48,1.34-20.23,1.43-22.8-1.38-45.43-5.09-67.83-9.57-8.74-1.62-17.41-3.62-26-5.8-6.47-2-13.2-3.59-18.95-7.27C5.9,220.4,7,219,8.42,217.81c2.35,1.32,6,3,7.89.09L19,218c-.7-1-1.92-1.24-2.94-1.71l.34-1.51c1.1,0,2.19,0,3.29,0a10.86,10.86,0,0,0-2.9-1.71l.83-2.08a22.61,22.61,0,0,0,5.95,1.51,51.35,51.35,0,0,0-15.09-11.4,16.81,16.81,0,0,1,5.12-9.18c3.11.46,5.22,3.47,8.42,3.81a80.89,80.89,0,0,0,0-10.56l2.73.22c0,2.2,0,4.4-.08,6.59A11.06,11.06,0,0,0,27.25,194c13.12,2.91,26.46,4.73,39.8,6.32,6.51.55,13,1.86,19.6,1.51,2.46-1.21,3.42-4.37,3.19-6.91l-.71-.52c4.27.75,8.57-.11,12.77-.89-3.47,3.69-8.46,6.74-9.51,12,.65,2.31,3.16,1.29,4.86,1.22a172.19,172.19,0,0,0,27.09-2.59c3.39-.75,7.22-1.59,9.31-4.66,2.81-3.85,6.61-8,6.11-13.08-5.93-1-11.7,1.29-17.58,1.19,17.47-5.6,35-11.15,52.11-17.75,1.63-.46,3.56-2,2.48-3.89a27.62,27.62,0,0,0-3.83-2.4c3.65-8.69,7.19-17.45,10.1-26.39-2.06-1-4.39-.65-6.59-.85-10-.83-20.13-1.2-30.21-1.38-11.76-.27-23.5-1.14-35.26-.75,1.71-.09,3.44,0,5.15-.24,4.07-1.78,8.58-2,12.9-2.8m60.16,9.5c-3.15,8.25-6,16.71-7.3,25.46l4.83-.49c0,2.26.08,5,2.05,6.47,1.61,1.26,3.82-.34,4.3-2,.62-1.27,0-3.21,1.4-4,3.17-.19,6.36-.35,9.52-.68a3,3,0,0,0,3.49-3c7.24-1.45,14.61-2.27,21.77-4.11-.39-3-3.21-4.66-5.28-6.48A63.66,63.66,0,0,0,192.15,138c-1.63-.4-2.56,1.38-3,2.65M223.3,180.9q-27,4.53-53.61,11.32a25.86,25.86,0,0,0,2.91,5.59c22.43-7.54,45.45-13.05,68.44-18.52-5.92-.75-11.88.83-17.74,1.63M24.86,195.32c.65,3.35,1.46,7.39,4.7,9.2,8.42,3.25,17.34,5,26.25,6.28,7.72.62,15.66,2.16,23.27-.07a28.43,28.43,0,0,0,7.54-7.17A149.65,149.65,0,0,1,58,201.7a145.94,145.94,0,0,1-33.18-6.38m200.67,6c-15.66,4.86-31.38,9.52-47,14.43.08,3.09,0,6.17-.16,9.25,4.31-.59,8.3-2.53,12.4-3.77,9.36-3.12,18.61-6.64,28-9.5,2.06-2.26,3.11-5.48,6-6.94,2.59-1.71,5.28-3.3,7.71-5.21a30.17,30.17,0,0,0-6.93,1.78M18.82,222c22.47,6,45.39,11.52,68.69,12.38-2.87-4.17-5.86-8.5-10.21-11.23-3.5-2.27-7.82-1.92-11.71-2.91-12.31-2.09-24.62-4.2-36.95-6.08-4.95-.76-7.54,4.39-9.81,7.84m74.71-2.69a87.16,87.16,0,0,0-12.16,1.56c5.28,1.29,10.75,1.51,16.07,2.53a18.34,18.34,0,0,1,1.32,2.16c-2.58.14-5.32-.32-7.66,1a42.29,42.29,0,0,0,7.9,1.3c.41,1.29.84,2.58,1.24,3.87a16.84,16.84,0,0,0-6.11.68c1.81,1.34,4.19,1.32,6.32,1.51,1.06,1.7.86,4.53,3.19,5.11a83.22,83.22,0,0,0,24,2.06c.76-4.33-1.41-8.35-3.41-12-2.3-3.8-5.23-7.74-9.69-9.05-6.78-2-14-1.83-20.92-.94Z" transform="translate(-1.81 -4)"/><path class="cls-3" d="M32,170.44q21.56-7.16,43.37-13.5c10.29,1,20.68.93,31,2,19.89,1.4,39.73,3.28,59.58,5.1a35.49,35.49,0,0,1,6.74.75h-1a15.89,15.89,0,0,1-5.87,3.43c-22.25,7.59-44.63,14.89-67.4,20.76-5.83,1.75-11.94.66-17.84,0q-26.8-3.06-53.51-7c-1.8-.2-3.81-.87-4.35-2.83C25.34,175.78,27.73,171.63,32,170.44Z" transform="translate(-1.81 -4)"/><path class="cls-3" d="M19.86,175.11a38.23,38.23,0,0,1,5.08-2.1,28.45,28.45,0,0,1-4,5.28C20.58,177.23,20.21,176.18,19.86,175.11Z" transform="translate(-1.81 -4)"/><path class="cls-3" d="M175.64,256.62c14.21-5.81,28.28-12,42.52-17.74-.88,2.83-2.57,5.28-4,7.85-5.87,10.71-11.88,21.35-17.78,32-1.92,3.49-4.25,6.79-5.44,10.66a47.39,47.39,0,0,1-22.44,18.05,30.65,30.65,0,0,0-5.44,1.25,45.13,45.13,0,0,1-32.23-4.28l-63-34.89c-5.12-2.86-10.46-5.46-15-9.2a63.36,63.36,0,0,1-6.54-6.67c24.73,4,49.36,8.91,74.33,11.25,9.29.59,18.63,1.56,27.9.33C158.26,264.91,166.89,260.23,175.64,256.62Z" transform="translate(-1.81 -4)"/></g></svg>